<mxfile host="app.diagrams.net" modified="2021-08-25T03:39:30.670Z" agent="5.0 (Macintosh; Intel Mac OS X 10_15_7) AppleWebKit/537.36 (KHTML, like Gecko) Chrome/81.0.4044.138 Safari/537.36" etag="aH5-5Z5h0zJhe8fbLgBO" version="14.9.9" type="github">
  <diagram id="a2tgugRnpEL76i69qjv2" name="Page-1">
    <mxGraphModel dx="2066" dy="1083" grid="1" gridSize="10" guides="1" tooltips="1" connect="1" arrows="1" fold="1" page="1" pageScale="1" pageWidth="850" pageHeight="1100" math="0" shadow="0">
      <root>
        <mxCell id="0" />
        <mxCell id="1" parent="0" />
        <mxCell id="pjBFNlvrcR_k7vOQFSDJ-12" style="rounded=0;orthogonalLoop=1;jettySize=auto;html=1;exitX=0;exitY=1;exitDx=0;exitDy=0;entryX=1;entryY=0;entryDx=0;entryDy=0;endArrow=none;endFill=0;strokeWidth=2;" edge="1" parent="1" source="pjBFNlvrcR_k7vOQFSDJ-1" target="pjBFNlvrcR_k7vOQFSDJ-3">
          <mxGeometry relative="1" as="geometry" />
        </mxCell>
        <mxCell id="pjBFNlvrcR_k7vOQFSDJ-1" value="" style="ellipse;whiteSpace=wrap;html=1;aspect=fixed;fillColor=#e51400;fontColor=#ffffff;strokeColor=#E51400;" vertex="1" parent="1">
          <mxGeometry x="200" y="480" width="80" height="80" as="geometry" />
        </mxCell>
        <mxCell id="pjBFNlvrcR_k7vOQFSDJ-2" value="" style="ellipse;whiteSpace=wrap;html=1;aspect=fixed;fillColor=#e3c800;fontColor=#000000;strokeColor=#E3C800;" vertex="1" parent="1">
          <mxGeometry x="380" y="510" width="80" height="80" as="geometry" />
        </mxCell>
        <mxCell id="pjBFNlvrcR_k7vOQFSDJ-3" value="" style="ellipse;whiteSpace=wrap;html=1;aspect=fixed;fillColor=#e3c800;fontColor=#000000;strokeColor=#E3C800;" vertex="1" parent="1">
          <mxGeometry x="60" y="630" width="80" height="80" as="geometry" />
        </mxCell>
        <mxCell id="pjBFNlvrcR_k7vOQFSDJ-4" value="" style="ellipse;whiteSpace=wrap;html=1;aspect=fixed;fillColor=#e3c800;fontColor=#000000;strokeColor=#E3C800;" vertex="1" parent="1">
          <mxGeometry x="345" y="350" width="80" height="80" as="geometry" />
        </mxCell>
        <mxCell id="pjBFNlvrcR_k7vOQFSDJ-5" value="" style="ellipse;whiteSpace=wrap;html=1;aspect=fixed;fillColor=#e3c800;fontColor=#000000;strokeColor=#E3C800;" vertex="1" parent="1">
          <mxGeometry x="280" y="620" width="80" height="80" as="geometry" />
        </mxCell>
        <mxCell id="pjBFNlvrcR_k7vOQFSDJ-6" value="" style="ellipse;whiteSpace=wrap;html=1;aspect=fixed;fillColor=#e3c800;fontColor=#000000;strokeColor=#E3C800;" vertex="1" parent="1">
          <mxGeometry x="50" y="480" width="80" height="80" as="geometry" />
        </mxCell>
        <mxCell id="pjBFNlvrcR_k7vOQFSDJ-7" value="" style="ellipse;whiteSpace=wrap;html=1;aspect=fixed;fillColor=#e3c800;fontColor=#000000;strokeColor=#E3C800;" vertex="1" parent="1">
          <mxGeometry x="230" y="240" width="80" height="80" as="geometry" />
        </mxCell>
        <mxCell id="pjBFNlvrcR_k7vOQFSDJ-8" value="" style="ellipse;whiteSpace=wrap;html=1;aspect=fixed;fillColor=#e3c800;fontColor=#000000;strokeColor=#E3C800;" vertex="1" parent="1">
          <mxGeometry x="170" y="740" width="80" height="80" as="geometry" />
        </mxCell>
        <mxCell id="pjBFNlvrcR_k7vOQFSDJ-9" value="" style="ellipse;whiteSpace=wrap;html=1;aspect=fixed;fillColor=#e3c800;fontColor=#000000;strokeColor=#E3C800;" vertex="1" parent="1">
          <mxGeometry x="400" y="660" width="80" height="80" as="geometry" />
        </mxCell>
        <mxCell id="pjBFNlvrcR_k7vOQFSDJ-10" value="" style="ellipse;whiteSpace=wrap;html=1;aspect=fixed;fillColor=#e3c800;fontColor=#000000;strokeColor=#E3C800;" vertex="1" parent="1">
          <mxGeometry x="140" y="350" width="80" height="80" as="geometry" />
        </mxCell>
        <mxCell id="pjBFNlvrcR_k7vOQFSDJ-13" style="rounded=0;orthogonalLoop=1;jettySize=auto;html=1;exitX=0;exitY=0.5;exitDx=0;exitDy=0;endArrow=none;endFill=0;strokeWidth=2;" edge="1" parent="1" source="pjBFNlvrcR_k7vOQFSDJ-1" target="pjBFNlvrcR_k7vOQFSDJ-6">
          <mxGeometry relative="1" as="geometry">
            <mxPoint x="193.43572875253787" y="520.0042712474622" as="sourcePoint" />
            <mxPoint x="110.00427124746213" y="613.4357287525379" as="targetPoint" />
          </mxGeometry>
        </mxCell>
        <mxCell id="pjBFNlvrcR_k7vOQFSDJ-14" style="rounded=0;orthogonalLoop=1;jettySize=auto;html=1;exitX=0.5;exitY=0;exitDx=0;exitDy=0;endArrow=none;endFill=0;entryX=0.5;entryY=1;entryDx=0;entryDy=0;strokeWidth=2;" edge="1" parent="1" source="pjBFNlvrcR_k7vOQFSDJ-8" target="pjBFNlvrcR_k7vOQFSDJ-1">
          <mxGeometry relative="1" as="geometry">
            <mxPoint x="345" y="570" as="sourcePoint" />
            <mxPoint x="275" y="570" as="targetPoint" />
          </mxGeometry>
        </mxCell>
        <mxCell id="pjBFNlvrcR_k7vOQFSDJ-15" style="rounded=0;orthogonalLoop=1;jettySize=auto;html=1;exitX=0;exitY=0.5;exitDx=0;exitDy=0;endArrow=none;endFill=0;strokeWidth=2;" edge="1" parent="1" source="pjBFNlvrcR_k7vOQFSDJ-2">
          <mxGeometry relative="1" as="geometry">
            <mxPoint x="350" y="520" as="sourcePoint" />
            <mxPoint x="280" y="520" as="targetPoint" />
          </mxGeometry>
        </mxCell>
        <mxCell id="pjBFNlvrcR_k7vOQFSDJ-16" style="rounded=0;orthogonalLoop=1;jettySize=auto;html=1;exitX=0.5;exitY=0;exitDx=0;exitDy=0;endArrow=none;endFill=0;entryX=1;entryY=1;entryDx=0;entryDy=0;strokeWidth=2;" edge="1" parent="1" source="pjBFNlvrcR_k7vOQFSDJ-5" target="pjBFNlvrcR_k7vOQFSDJ-1">
          <mxGeometry relative="1" as="geometry">
            <mxPoint x="370" y="580" as="sourcePoint" />
            <mxPoint x="270" y="550" as="targetPoint" />
          </mxGeometry>
        </mxCell>
        <mxCell id="pjBFNlvrcR_k7vOQFSDJ-19" style="rounded=0;orthogonalLoop=1;jettySize=auto;html=1;exitX=0;exitY=0.5;exitDx=0;exitDy=0;endArrow=none;endFill=0;strokeWidth=2;" edge="1" parent="1" source="pjBFNlvrcR_k7vOQFSDJ-9">
          <mxGeometry relative="1" as="geometry">
            <mxPoint x="460" y="700" as="sourcePoint" />
            <mxPoint x="360" y="670" as="targetPoint" />
          </mxGeometry>
        </mxCell>
        <mxCell id="pjBFNlvrcR_k7vOQFSDJ-20" style="rounded=0;orthogonalLoop=1;jettySize=auto;html=1;exitX=1;exitY=0;exitDx=0;exitDy=0;endArrow=none;endFill=0;strokeWidth=2;" edge="1" parent="1" source="pjBFNlvrcR_k7vOQFSDJ-8" target="pjBFNlvrcR_k7vOQFSDJ-5">
          <mxGeometry relative="1" as="geometry">
            <mxPoint x="310" y="760" as="sourcePoint" />
            <mxPoint x="270" y="730" as="targetPoint" />
          </mxGeometry>
        </mxCell>
        <mxCell id="pjBFNlvrcR_k7vOQFSDJ-21" style="rounded=0;orthogonalLoop=1;jettySize=auto;html=1;exitX=0;exitY=1;exitDx=0;exitDy=0;endArrow=none;endFill=0;entryX=1;entryY=0;entryDx=0;entryDy=0;strokeWidth=2;" edge="1" parent="1" source="pjBFNlvrcR_k7vOQFSDJ-4" target="pjBFNlvrcR_k7vOQFSDJ-1">
          <mxGeometry relative="1" as="geometry">
            <mxPoint x="390" y="480" as="sourcePoint" />
            <mxPoint x="290" y="450" as="targetPoint" />
          </mxGeometry>
        </mxCell>
        <mxCell id="pjBFNlvrcR_k7vOQFSDJ-22" style="rounded=0;orthogonalLoop=1;jettySize=auto;html=1;exitX=0.5;exitY=0;exitDx=0;exitDy=0;endArrow=none;endFill=0;entryX=1;entryY=1;entryDx=0;entryDy=0;strokeWidth=2;" edge="1" parent="1" source="pjBFNlvrcR_k7vOQFSDJ-1" target="pjBFNlvrcR_k7vOQFSDJ-10">
          <mxGeometry relative="1" as="geometry">
            <mxPoint x="245" y="450" as="sourcePoint" />
            <mxPoint x="175" y="450" as="targetPoint" />
          </mxGeometry>
        </mxCell>
        <mxCell id="pjBFNlvrcR_k7vOQFSDJ-23" style="rounded=0;orthogonalLoop=1;jettySize=auto;html=1;exitX=0;exitY=0;exitDx=0;exitDy=0;endArrow=none;endFill=0;entryX=1;entryY=1;entryDx=0;entryDy=0;strokeWidth=2;" edge="1" parent="1" source="pjBFNlvrcR_k7vOQFSDJ-4" target="pjBFNlvrcR_k7vOQFSDJ-7">
          <mxGeometry relative="1" as="geometry">
            <mxPoint x="335.86" y="361.72" as="sourcePoint" />
            <mxPoint x="304.14427124746214" y="300.00427124746216" as="targetPoint" />
          </mxGeometry>
        </mxCell>
        <mxCell id="pjBFNlvrcR_k7vOQFSDJ-24" style="rounded=0;orthogonalLoop=1;jettySize=auto;html=1;exitX=1;exitY=0;exitDx=0;exitDy=0;endArrow=none;endFill=0;entryX=0;entryY=1;entryDx=0;entryDy=0;strokeWidth=2;" edge="1" parent="1" source="pjBFNlvrcR_k7vOQFSDJ-10" target="pjBFNlvrcR_k7vOQFSDJ-7">
          <mxGeometry relative="1" as="geometry">
            <mxPoint x="281.72" y="420.86" as="sourcePoint" />
            <mxPoint x="250.00427124746213" y="359.14427124746214" as="targetPoint" />
          </mxGeometry>
        </mxCell>
        <mxCell id="pjBFNlvrcR_k7vOQFSDJ-26" value="" style="ellipse;whiteSpace=wrap;html=1;aspect=fixed;fillColor=#e3c800;fontColor=#000000;strokeColor=#E3C800;" vertex="1" parent="1">
          <mxGeometry x="310" y="760" width="80" height="80" as="geometry" />
        </mxCell>
        <mxCell id="pjBFNlvrcR_k7vOQFSDJ-27" style="rounded=0;orthogonalLoop=1;jettySize=auto;html=1;exitX=1;exitY=1;exitDx=0;exitDy=0;endArrow=none;endFill=0;entryX=0;entryY=0.5;entryDx=0;entryDy=0;strokeWidth=2;" edge="1" parent="1" source="pjBFNlvrcR_k7vOQFSDJ-8" target="pjBFNlvrcR_k7vOQFSDJ-26">
          <mxGeometry relative="1" as="geometry">
            <mxPoint x="248.28427124746213" y="761.7157287525379" as="sourcePoint" />
            <mxPoint x="290" y="860" as="targetPoint" />
          </mxGeometry>
        </mxCell>
        <mxCell id="pjBFNlvrcR_k7vOQFSDJ-28" value="" style="ellipse;whiteSpace=wrap;html=1;aspect=fixed;fillColor=#e3c800;fontColor=#000000;strokeColor=#E3C800;" vertex="1" parent="1">
          <mxGeometry x="480" y="290" width="80" height="80" as="geometry" />
        </mxCell>
        <mxCell id="pjBFNlvrcR_k7vOQFSDJ-29" style="rounded=0;orthogonalLoop=1;jettySize=auto;html=1;exitX=0.5;exitY=0;exitDx=0;exitDy=0;endArrow=none;endFill=0;entryX=0.5;entryY=1;entryDx=0;entryDy=0;strokeWidth=2;" edge="1" parent="1" source="pjBFNlvrcR_k7vOQFSDJ-3" target="pjBFNlvrcR_k7vOQFSDJ-6">
          <mxGeometry relative="1" as="geometry">
            <mxPoint x="330" y="630" as="sourcePoint" />
            <mxPoint x="278.28427124746213" y="558.2842712474621" as="targetPoint" />
          </mxGeometry>
        </mxCell>
        <mxCell id="pjBFNlvrcR_k7vOQFSDJ-30" value="" style="ellipse;whiteSpace=wrap;html=1;aspect=fixed;fillColor=#e51400;fontColor=#ffffff;strokeColor=#E51400;" vertex="1" parent="1">
          <mxGeometry x="500" y="600" width="80" height="80" as="geometry" />
        </mxCell>
        <mxCell id="pjBFNlvrcR_k7vOQFSDJ-31" style="rounded=0;orthogonalLoop=1;jettySize=auto;html=1;exitX=1;exitY=0;exitDx=0;exitDy=0;endArrow=none;endFill=0;entryX=0.5;entryY=1;entryDx=0;entryDy=0;strokeWidth=2;" edge="1" parent="1" source="pjBFNlvrcR_k7vOQFSDJ-26" target="pjBFNlvrcR_k7vOQFSDJ-9">
          <mxGeometry relative="1" as="geometry">
            <mxPoint x="370.00427124746216" y="799.9957287525378" as="sourcePoint" />
            <mxPoint x="388" y="750" as="targetPoint" />
          </mxGeometry>
        </mxCell>
        <mxCell id="pjBFNlvrcR_k7vOQFSDJ-32" style="rounded=0;orthogonalLoop=1;jettySize=auto;html=1;endArrow=none;endFill=0;entryX=1;entryY=0;entryDx=0;entryDy=0;exitX=0;exitY=0.5;exitDx=0;exitDy=0;strokeWidth=2;" edge="1" parent="1" source="pjBFNlvrcR_k7vOQFSDJ-4" target="pjBFNlvrcR_k7vOQFSDJ-6">
          <mxGeometry relative="1" as="geometry">
            <mxPoint x="340" y="390" as="sourcePoint" />
            <mxPoint x="140" y="530" as="targetPoint" />
          </mxGeometry>
        </mxCell>
        <mxCell id="pjBFNlvrcR_k7vOQFSDJ-33" style="rounded=0;orthogonalLoop=1;jettySize=auto;html=1;endArrow=none;endFill=0;entryX=1;entryY=0;entryDx=0;entryDy=0;exitX=0;exitY=1;exitDx=0;exitDy=0;strokeWidth=2;" edge="1" parent="1" source="pjBFNlvrcR_k7vOQFSDJ-28" target="pjBFNlvrcR_k7vOQFSDJ-2">
          <mxGeometry relative="1" as="geometry">
            <mxPoint x="480" y="470" as="sourcePoint" />
            <mxPoint x="480" y="530" as="targetPoint" />
          </mxGeometry>
        </mxCell>
        <mxCell id="pjBFNlvrcR_k7vOQFSDJ-34" style="rounded=0;orthogonalLoop=1;jettySize=auto;html=1;exitX=0;exitY=0;exitDx=0;exitDy=0;endArrow=none;endFill=0;entryX=1;entryY=0.5;entryDx=0;entryDy=0;strokeWidth=2;" edge="1" parent="1" source="pjBFNlvrcR_k7vOQFSDJ-26" target="pjBFNlvrcR_k7vOQFSDJ-3">
          <mxGeometry relative="1" as="geometry">
            <mxPoint x="330" y="630" as="sourcePoint" />
            <mxPoint x="278.28427124746213" y="558.2842712474621" as="targetPoint" />
          </mxGeometry>
        </mxCell>
        <mxCell id="pjBFNlvrcR_k7vOQFSDJ-35" value="" style="ellipse;whiteSpace=wrap;html=1;aspect=fixed;fillColor=#e3c800;fontColor=#000000;strokeColor=#E3C800;" vertex="1" parent="1">
          <mxGeometry x="500" y="450" width="80" height="80" as="geometry" />
        </mxCell>
        <mxCell id="pjBFNlvrcR_k7vOQFSDJ-36" style="rounded=0;orthogonalLoop=1;jettySize=auto;html=1;exitX=0.5;exitY=0;exitDx=0;exitDy=0;endArrow=none;endFill=0;entryX=0.5;entryY=1;entryDx=0;entryDy=0;strokeWidth=2;" edge="1" parent="1" source="pjBFNlvrcR_k7vOQFSDJ-35" target="pjBFNlvrcR_k7vOQFSDJ-28">
          <mxGeometry relative="1" as="geometry">
            <mxPoint x="366.71572875253787" y="371.71572875253787" as="sourcePoint" />
            <mxPoint x="460" y="330" as="targetPoint" />
          </mxGeometry>
        </mxCell>
        <mxCell id="pjBFNlvrcR_k7vOQFSDJ-37" style="rounded=0;orthogonalLoop=1;jettySize=auto;html=1;exitX=0.5;exitY=0;exitDx=0;exitDy=0;endArrow=none;endFill=0;entryX=0.5;entryY=1;entryDx=0;entryDy=0;strokeWidth=2;" edge="1" parent="1" source="pjBFNlvrcR_k7vOQFSDJ-30" target="pjBFNlvrcR_k7vOQFSDJ-35">
          <mxGeometry relative="1" as="geometry">
            <mxPoint x="550" y="460" as="sourcePoint" />
            <mxPoint x="530" y="380" as="targetPoint" />
          </mxGeometry>
        </mxCell>
        <mxCell id="pjBFNlvrcR_k7vOQFSDJ-38" value="" style="ellipse;whiteSpace=wrap;html=1;aspect=fixed;fillColor=#e3c800;fontColor=#000000;strokeColor=#E3C800;" vertex="1" parent="1">
          <mxGeometry x="490" y="750" width="80" height="80" as="geometry" />
        </mxCell>
        <mxCell id="pjBFNlvrcR_k7vOQFSDJ-39" style="rounded=0;orthogonalLoop=1;jettySize=auto;html=1;exitX=0.5;exitY=0;exitDx=0;exitDy=0;endArrow=none;endFill=0;entryX=0.5;entryY=1;entryDx=0;entryDy=0;strokeWidth=2;" edge="1" parent="1" source="pjBFNlvrcR_k7vOQFSDJ-38" target="pjBFNlvrcR_k7vOQFSDJ-30">
          <mxGeometry relative="1" as="geometry">
            <mxPoint x="550" y="610" as="sourcePoint" />
            <mxPoint x="550" y="540" as="targetPoint" />
          </mxGeometry>
        </mxCell>
      </root>
    </mxGraphModel>
  </diagram>
</mxfile>
